<svg width="16" height="17" viewBox="0 0 16 17" fill="none" xmlns="http://www.w3.org/2000/svg">
<path d="M16 7.89286C16.0012 7.2849 15.8482 6.6863 15.5549 6.15162C15.2616 5.61694 14.8373 5.16318 14.3208 4.83171C13.8042 4.50024 13.2118 4.3016 12.5974 4.25388C11.9831 4.20617 11.3665 4.3109 10.8037 4.55854C10.2409 4.80618 9.74991 5.18885 9.37542 5.67166C9.00093 6.15447 8.75488 6.72208 8.65968 7.32274C8.56449 7.92341 8.62318 8.53803 8.83041 9.11058C9.03764 9.68313 9.38682 10.1954 9.84612 10.6007V16.3929L12.3077 15.2491L14.7692 16.3929V10.6007C15.1561 10.2603 15.4657 9.84317 15.6778 9.37652C15.8899 8.90988 15.9997 8.40428 16 7.89286ZM13.5384 14.479L12.3077 13.9073L11.0769 14.479V11.3232C11.8723 11.6066 12.7431 11.6066 13.5384 11.3232V14.479ZM12.3077 10.3214C11.8208 10.3214 11.3449 10.179 10.9401 9.91215C10.5353 9.64529 10.2198 9.266 10.0335 8.82224C9.84718 8.37847 9.79844 7.89017 9.89342 7.41907C9.9884 6.94798 10.2228 6.51525 10.5671 6.17561C10.9113 5.83596 11.3499 5.60466 11.8274 5.51096C12.3049 5.41725 12.7999 5.46534 13.2496 5.64916C13.6994 5.83297 14.0839 6.14425 14.3544 6.54362C14.6248 6.943 14.7692 7.41254 14.7692 7.89286C14.7685 8.53674 14.5089 9.15404 14.0474 9.60933C13.5859 10.0646 12.9603 10.3207 12.3077 10.3214Z" fill="#001041"/>
<path d="M6.15385 0C5.17491 0.00106065 4.23639 0.385201 3.54418 1.06814C2.85197 1.75108 2.46261 2.67704 2.46154 3.64286V7.28571H1.23077C0.904464 7.28608 0.59163 7.41414 0.360898 7.64178C0.130165 7.86942 0.000374605 8.17807 0 8.5V15.7857C0.000374605 16.1076 0.130165 16.4163 0.360898 16.6439C0.59163 16.8716 0.904464 16.9996 1.23077 17H8V15.7857H1.23077V8.5H6.76923V7.28571H3.69231V3.64286C3.69157 3.04055 3.91771 2.45947 4.32683 2.01242C4.73594 1.56537 5.29883 1.28427 5.90622 1.22368C6.5136 1.16309 7.12214 1.32734 7.61367 1.68454C8.10521 2.04174 8.44467 2.5664 8.56615 3.15666L9.77231 2.91477C9.60038 2.09273 9.14677 1.35418 8.48778 0.823342C7.82878 0.292501 7.00459 0.00175258 6.15385 0Z" fill="#001041"/>
</svg>
