<svg width="27" height="14" viewBox="0 0 27 14" fill="none" xmlns="http://www.w3.org/2000/svg">
<path d="M20.1 0.5H7.09998C5.52114 0.5 3.99874 1.1751 2.87018 2.39048C1.74045 3.60711 1.09998 5.26463 1.09998 7C1.09998 8.73537 1.74045 10.3929 2.87018 11.6095C3.99874 12.8249 5.52114 13.5 7.09998 13.5H20.1C21.6788 13.5 23.2012 12.8249 24.3298 11.6095C25.4595 10.3929 26.1 8.73537 26.1 7C26.1 5.26463 25.4595 3.60711 24.3298 2.39048C23.2012 1.1751 21.6788 0.5 20.1 0.5ZM10.2241 10.3101C9.40228 11.1951 8.27939 11.7 7.09998 11.7C5.92056 11.7 4.79767 11.1951 3.97586 10.3101C3.15521 9.4263 2.69998 8.23505 2.69998 7C2.69998 5.76495 3.15521 4.5737 3.97586 3.68993C4.79767 2.8049 5.92056 2.3 7.09998 2.3C8.27939 2.3 9.40228 2.8049 10.2241 3.68993C11.0447 4.5737 11.5 5.76495 11.5 7C11.5 8.23505 11.0447 9.42629 10.2241 10.3101Z" fill="#001041" stroke="#2E52AF"/>
</svg>
