<svg width="20" height="20" viewBox="0 0 20 20" fill="none" xmlns="http://www.w3.org/2000/svg">
<path d="M17.4846 8.94475C17.4846 9.24625 17.5866 9.54776 17.5866 9.94977C17.5866 10.3518 17.5866 10.6533 17.4846 10.9548L19.6269 12.6633C19.831 12.8643 19.831 13.0653 19.729 13.2663L17.6887 16.7839C17.5866 16.8844 17.3827 16.9849 17.0766 16.8844L14.5262 15.8794C14.0161 16.2814 13.404 16.5829 12.7919 16.8844L12.3839 19.4975C12.4859 19.799 12.1798 20 11.9758 20H7.89522C7.69115 20 7.38514 19.799 7.38514 19.598L6.97708 16.8844C6.36499 16.6834 5.85492 16.2814 5.24283 15.8794L2.79447 16.8844C2.48842 16.9849 2.28439 16.8844 2.08032 16.6834L0.040021 13.1658C-0.061994 13.0653 0.040021 12.7638 0.244051 12.5628L2.38637 10.9548C2.38637 10.6533 2.28435 10.3518 2.28435 9.94977C2.28435 9.54776 2.28435 9.24625 2.38637 8.94475L0.244051 7.23621C0.040021 7.03516 0.040021 6.8342 0.142036 6.63315L2.18234 3.11557C2.28435 3.01507 2.48834 2.91457 2.79443 3.01507L5.3448 4.02009C5.85488 3.61808 6.46697 3.31658 7.07906 3.01507L7.48712 0.402008C7.48712 0.201004 7.69115 0 7.99719 0H12.0778C12.2819 0 12.5879 0.201044 12.5879 0.402008L12.9959 3.01507C13.608 3.31658 14.2201 3.61808 14.7302 4.02009L17.2806 3.01507C17.4846 2.91457 17.7906 3.01507 17.8927 3.21611L19.933 6.73369C20.035 6.9347 20.035 7.23621 19.8309 7.33671L17.4846 8.94475ZM9.93552 6.43219C7.99723 6.43219 6.36499 8.04022 6.36499 9.94977C6.36499 11.8593 7.99723 13.4673 9.93552 13.4673C11.8738 13.4673 13.506 11.8593 13.506 9.94977C13.506 8.04022 11.8738 6.43219 9.93552 6.43219Z" fill="white"/>
</svg>
