<svg width="27" height="14" viewBox="0 0 27 14" fill="none" xmlns="http://www.w3.org/2000/svg">
<path d="M7.09998 0.5H20.1C21.6788 0.5 23.2012 1.1751 24.3298 2.39048C25.4595 3.60711 26.1 5.26463 26.1 7C26.1 8.73537 25.4595 10.3929 24.3298 11.6095C23.2012 12.8249 21.6788 13.5 20.1 13.5H7.09998C5.52114 13.5 3.99874 12.8249 2.87018 11.6095C1.74045 10.3929 1.09998 8.73537 1.09998 7C1.09998 5.26463 1.74045 3.60711 2.87018 2.39048C3.99874 1.1751 5.52114 0.5 7.09998 0.5ZM16.9759 10.3101C17.7977 11.1951 18.9206 11.7 20.1 11.7C21.2794 11.7 22.4023 11.1951 23.2241 10.3101C24.0447 9.4263 24.5 8.23505 24.5 7C24.5 5.76495 24.0447 4.5737 23.2241 3.68993C22.4023 2.8049 21.2794 2.3 20.1 2.3C18.9206 2.3 17.7977 2.8049 16.9759 3.68993C16.1552 4.5737 15.7 5.76495 15.7 7C15.7 8.23505 16.1552 9.42629 16.9759 10.3101Z" fill="#1FFFFF" stroke="#2E52AF"/>
</svg>
