<svg width="16" height="17" viewBox="0 0 16 17" fill="none" xmlns="http://www.w3.org/2000/svg">
<path d="M7.99966 17C7.29242 17 6.61415 16.7245 6.11405 16.234C5.61396 15.7435 5.33301 15.0783 5.33301 14.3846C5.33301 14.2112 5.40325 14.0449 5.52827 13.9223C5.65329 13.7997 5.82286 13.7308 5.99967 13.7308H9.99965C10.1765 13.7308 10.346 13.7997 10.4711 13.9223C10.5961 14.0449 10.6663 14.2112 10.6663 14.3846C10.6663 15.0783 10.3854 15.7435 9.88527 16.234C9.38517 16.7245 8.7069 17 7.99966 17ZM6.84633 15.0385C6.96354 15.2366 7.13177 15.4011 7.33418 15.5155C7.53659 15.6298 7.76608 15.69 7.99966 15.69C8.23325 15.69 8.46273 15.6298 8.66514 15.5155C8.86755 15.4011 9.03578 15.2366 9.15299 15.0385H6.84633Z" fill="#00133C"/>
<path d="M9.33319 2.61538H6.66654C6.48973 2.61538 6.32016 2.5465 6.19514 2.42388C6.07012 2.30126 5.99988 2.13495 5.99988 1.96154C5.99988 1.44131 6.21059 0.942381 6.58566 0.574521C6.96073 0.206662 7.46944 0 7.99987 0C8.5303 0 9.039 0.206662 9.41407 0.574521C9.78915 0.942381 9.99986 1.44131 9.99986 1.96154C9.99986 2.13495 9.92962 2.30126 9.8046 2.42388C9.67957 2.5465 9.51 2.61538 9.33319 2.61538Z" fill="#00133C"/>
<path d="M15.3333 15.0385H0.666665C0.489855 15.0385 0.320286 14.9696 0.195263 14.847C0.0702391 14.7244 1.40737e-06 14.5581 1.40737e-06 14.3847C-0.000583256 13.6462 0.181005 12.9187 0.529268 12.264C0.877531 11.6093 1.38213 11.047 1.99999 10.625V7.19236C1.99996 5.63843 2.6266 4.14757 3.74318 3.04511C4.85975 1.94265 6.37561 1.3181 7.95996 1.30774H8.03329C9.62459 1.30774 11.1507 1.92772 12.2759 3.0313C13.4011 4.13488 14.0333 5.63166 14.0333 7.19236V10.625C14.645 11.0506 15.1431 11.6145 15.4854 12.2689C15.8278 12.9234 16.0043 13.6491 15.9999 14.3847C15.9999 14.5581 15.9297 14.7244 15.8047 14.847C15.6796 14.9696 15.5101 15.0385 15.3333 15.0385ZM1.39999 13.7308H14.5999C14.5055 13.2775 14.3141 12.849 14.0382 12.4737C13.7624 12.0984 13.4085 11.7847 12.9999 11.5535C12.8982 11.4959 12.8138 11.413 12.7553 11.3131C12.6967 11.2132 12.6661 11.0999 12.6666 10.9847V7.19236C12.6666 5.97848 12.1749 4.81432 11.2998 3.95598C10.4246 3.09764 9.23763 2.61543 7.99996 2.61543C6.76229 2.61543 5.57531 3.09764 4.70015 3.95598C3.82498 4.81432 3.33332 5.97848 3.33332 7.19236V10.9847C3.33378 11.0999 3.3032 11.2132 3.24467 11.3131C3.18613 11.413 3.10172 11.4959 2.99999 11.5535C2.59139 11.7847 2.23749 12.0984 1.96168 12.4737C1.68586 12.849 1.49442 13.2775 1.39999 13.7308Z" fill="#00133C"/>
</svg>
